<svg width="871" height="323" viewBox="0 0 871 323" fill="none" xmlns="http://www.w3.org/2000/svg">
<path d="M649.24 157V152.92H671.92V98.44H654.88V95.56L671.92 94L677.2 91H680.08V152.92H702.76V157H649.24ZM676 81.4C674.16 81.4 672.6 80.76 671.32 79.48C670.04 78.2 669.4 76.64 669.4 74.8C669.4 72.96 670.04 71.4 671.32 70.12C672.6 68.84 674.16 68.2 676 68.2C677.84 68.2 679.4 68.84 680.68 70.12C681.96 71.4 682.6 72.96 682.6 74.8C682.6 76.64 681.96 78.2 680.68 79.48C679.4 80.76 677.84 81.4 676 81.4ZM733.12 157L712.72 96.28H703.48V92.2H733V96.28H721L737.68 146.32L754.36 96.28H746.08V92.2H766.24V96.28H758.2L737.92 157H733.12ZM798.88 158.2C794 158.2 789.6 156.84 785.68 154.12C781.84 151.32 778.8 147.44 776.56 142.48C774.4 137.52 773.32 131.76 773.32 125.2C773.32 120.88 773.8 116.72 774.76 112.72C775.8 108.64 777.36 104.96 779.44 101.68C781.6 98.4 784.24 95.8 787.36 93.88C790.56 91.96 794.32 91 798.64 91C804.96 91 810.04 93.16 813.88 97.48C817.8 101.8 819.76 107.84 819.76 115.6C819.76 116.64 819.72 117.6 819.64 118.48C819.64 119.36 819.6 120.04 819.52 120.52H782.2V130.6C782.2 135.64 783.08 139.84 784.84 143.2C786.6 146.48 788.92 148.96 791.8 150.64C794.68 152.32 797.72 153.16 800.92 153.16C803.96 153.16 806.52 152.52 808.6 151.24C810.76 149.96 812.48 148.4 813.76 146.56C815.12 144.64 816.04 142.84 816.52 141.16L819.04 142C818.56 144.32 817.48 146.76 815.8 149.32C814.12 151.8 811.88 153.92 809.08 155.68C806.28 157.36 802.88 158.2 798.88 158.2ZM798.4 94.84C795.04 94.84 792.16 95.84 789.76 97.84C787.44 99.76 785.64 102.44 784.36 105.88C783.08 109.24 782.36 113.08 782.2 117.4H806.2C807.08 117.4 807.92 117.32 808.72 117.16C809.6 116.92 810.32 116.32 810.88 115.36C811.52 114.32 811.84 112.6 811.84 110.2C811.84 105.24 810.56 101.44 808 98.8C805.44 96.16 802.24 94.84 798.4 94.84Z" fill="#122620"/>
<g filter="url(#filter0_d_131_2)">
<path d="M266.992 225.328C260.482 225.328 254.557 223.766 249.219 220.641C244.01 217.516 239.518 213.219 235.742 207.75C232.096 202.281 229.297 195.901 227.344 188.609C225.521 181.188 224.74 173.31 225 164.977C225.26 157.164 226.237 148.701 227.93 139.586C229.753 130.471 232.292 121.357 235.547 112.242C238.802 102.997 242.708 94.1432 247.266 85.6797C251.953 77.0859 257.292 69.5339 263.281 63.0234C269.271 56.513 275.911 51.3047 283.203 47.3984C290.495 43.362 298.503 41.3438 307.227 41.3438C312.565 41.3438 317.057 42.4505 320.703 44.6641C324.479 46.7474 327.474 49.5469 329.688 53.0625C332.031 56.5781 333.659 60.5495 334.57 64.9766C335.482 69.4036 335.872 73.8958 335.742 78.4531C335.482 82.75 334.831 86.9167 333.789 90.9531C332.878 94.9896 331.51 98.6354 329.688 101.891C327.995 105.016 325.846 107.555 323.242 109.508C320.768 111.331 317.904 112.242 314.648 112.242C313.086 112.112 311.589 111.591 310.156 110.68C308.854 109.898 307.487 108.727 306.055 107.164C304.753 105.602 303.516 103.323 302.344 100.328C305.859 98.8958 308.594 96.4219 310.547 92.9062C312.63 89.2604 314.193 85.4844 315.234 81.5781C316.406 77.151 317.188 72.2031 317.578 66.7344C317.839 61.3958 316.732 57.4896 314.258 55.0156C311.784 52.5417 308.984 51.3047 305.859 51.3047C299.74 51.3047 293.294 54.4948 286.523 60.875C279.753 67.2552 273.438 75.9141 267.578 86.8516C261.849 97.6589 256.966 110.289 252.93 124.742C249.023 139.195 246.745 154.495 246.094 170.641C245.833 177.932 246.289 184.117 247.461 189.195C248.763 194.273 250.521 198.44 252.734 201.695C255.078 204.951 257.682 207.294 260.547 208.727C263.411 210.159 266.276 210.875 269.141 210.875C273.698 210.875 277.995 209.898 282.031 207.945C286.068 205.992 289.714 203.583 292.969 200.719C296.354 197.854 299.219 194.859 301.562 191.734C304.036 188.74 305.924 186.07 307.227 183.727C308.138 182.034 309.115 180.992 310.156 180.602C311.198 180.211 312.109 180.341 312.891 180.992C313.672 181.513 314.193 182.424 314.453 183.727C314.714 184.898 314.453 186.331 313.672 188.023C311.458 192.451 308.724 196.878 305.469 201.305C302.344 205.732 298.763 209.703 294.727 213.219C290.82 216.865 286.523 219.794 281.836 222.008C277.148 224.221 272.201 225.328 266.992 225.328ZM327.344 188.023C326.432 189.456 325.456 190.367 324.414 190.758C323.242 191.279 322.266 191.344 321.484 190.953C320.573 190.693 319.987 190.042 319.727 189C319.466 187.958 319.727 186.656 320.508 185.094C320.898 184.312 321.81 182.555 323.242 179.82C324.544 177.086 326.172 173.831 328.125 170.055C329.948 166.148 331.966 161.982 334.18 157.555C336.393 152.997 338.477 148.701 340.43 144.664C342.513 140.628 344.401 137.047 346.094 133.922C347.786 130.667 349.023 128.323 349.805 126.891C348.372 125.589 347.396 124.677 346.875 124.156C346.354 123.505 345.964 122.203 345.703 120.25C345.443 118.557 345.833 116.344 346.875 113.609C347.917 110.875 349.284 108.271 350.977 105.797C352.669 103.193 354.557 100.979 356.641 99.1562C358.724 97.3333 360.742 96.4219 362.695 96.4219C366.341 96.4219 368.88 97.5938 370.312 99.9375C371.875 102.281 372.786 104.69 373.047 107.164C373.307 108.857 373.177 111.005 372.656 113.609C372.135 116.214 371.159 118.557 369.727 120.641C370.117 120.901 370.638 121.227 371.289 121.617C371.94 121.878 372.982 122.008 374.414 122.008C376.497 122.008 377.93 121.878 378.711 121.617C379.622 121.357 380.99 121.227 382.812 121.227C385.026 121.227 386.849 121.812 388.281 122.984C389.714 124.026 390.885 125.393 391.797 127.086C392.708 128.648 393.359 130.406 393.75 132.359C394.271 134.182 394.596 135.875 394.727 137.438C395.117 140.693 394.271 144.078 392.188 147.594C390.104 151.109 387.565 154.951 384.57 159.117C382.747 161.721 380.924 164.651 379.102 167.906C377.279 171.161 376.497 174.091 376.758 176.695C377.018 178.388 377.474 179.755 378.125 180.797C378.776 181.839 380.599 182.359 383.594 182.359C385.807 182.359 388.216 181.578 390.82 180.016C393.555 178.323 396.289 176.24 399.023 173.766C401.888 171.161 404.688 168.362 407.422 165.367C410.156 162.242 412.695 159.247 415.039 156.383C417.383 153.388 419.336 150.719 420.898 148.375C422.591 146.031 423.828 144.339 424.609 143.297C425.26 142.255 426.107 141.539 427.148 141.148C428.19 140.758 429.102 140.758 429.883 141.148C430.664 141.539 431.12 142.32 431.25 143.492C431.51 144.664 431.055 146.227 429.883 148.18C429.102 149.482 427.734 151.565 425.781 154.43C423.958 157.294 421.68 160.484 418.945 164C416.341 167.516 413.411 171.161 410.156 174.938C406.901 178.583 403.451 181.969 399.805 185.094C396.289 188.089 392.708 190.562 389.062 192.516C385.547 194.469 382.161 195.445 378.906 195.445C375.521 195.445 372.721 194.794 370.508 193.492C368.294 192.19 366.471 190.628 365.039 188.805C363.737 186.852 362.76 184.768 362.109 182.555C361.589 180.211 361.393 178.062 361.523 176.109C361.654 174.547 362.044 172.919 362.695 171.227C363.477 169.404 364.323 167.581 365.234 165.758C366.276 163.805 367.318 161.917 368.359 160.094C369.531 158.141 370.573 156.253 371.484 154.43C373.698 150.654 375.456 147.464 376.758 144.859C378.19 142.125 378.906 139.846 378.906 138.023C378.906 136.852 378.646 135.81 378.125 134.898C377.604 133.987 376.758 133.531 375.586 133.531C374.805 133.531 374.219 133.596 373.828 133.727C373.568 133.727 373.242 133.727 372.852 133.727C372.591 133.727 372.135 133.792 371.484 133.922C370.964 133.922 370.117 133.922 368.945 133.922C367.253 133.922 365.82 133.661 364.648 133.141C363.477 132.62 362.37 132.229 361.328 131.969C360.807 132.88 359.635 134.833 357.812 137.828C355.99 140.823 353.841 144.339 351.367 148.375C349.023 152.411 346.484 156.643 343.75 161.07C341.146 165.497 338.672 169.664 336.328 173.57C333.984 177.346 332.031 180.602 330.469 183.336C328.776 185.94 327.734 187.503 327.344 188.023ZM516.211 150.133C514.388 152.737 512.044 155.992 509.18 159.898C506.315 163.674 503.32 167.516 500.195 171.422C497.201 175.198 494.206 178.714 491.211 181.969C488.346 185.094 485.938 187.307 483.984 188.609C482.682 189.391 481.185 190.042 479.492 190.562C477.799 191.083 476.042 191.409 474.219 191.539C472.526 191.669 470.898 191.539 469.336 191.148C467.773 190.888 466.406 190.367 465.234 189.586C464.062 188.674 463.086 187.372 462.305 185.68C461.654 184.247 461.003 182.359 460.352 180.016C459.831 177.672 459.635 174.742 459.766 171.227C456.641 176.435 453.19 180.471 449.414 183.336C445.638 186.07 442.057 188.089 438.672 189.391C434.766 190.823 430.859 191.669 426.953 191.93C425.13 191.93 423.177 191.279 421.094 189.977C419.01 188.805 417.253 186.917 415.82 184.312C414.388 181.578 413.477 178.128 413.086 173.961C412.695 169.664 413.216 164.586 414.648 158.727C416.471 150.784 419.336 143.557 423.242 137.047C427.279 130.536 431.641 125.003 436.328 120.445C441.016 115.758 445.638 112.242 450.195 109.898C454.753 107.555 458.529 106.513 461.523 106.773C465.039 107.424 467.904 108.466 470.117 109.898C471.94 111.201 473.112 113.154 473.633 115.758C474.284 118.232 473.242 121.552 470.508 125.719C472.331 125.328 473.828 125.068 475 124.938C476.302 124.807 477.279 124.742 477.93 124.742C478.711 124.742 479.232 124.807 479.492 124.938C479.622 125.198 479.688 125.784 479.688 126.695C479.688 127.477 479.492 128.974 479.102 131.188C478.711 133.401 478.125 136.396 477.344 140.172C476.562 143.948 475.521 148.831 474.219 154.82C473.958 155.992 473.698 157.099 473.438 158.141C473.307 159.052 473.112 160.029 472.852 161.07C472.721 161.982 472.526 163.089 472.266 164.391C472.005 165.693 471.68 167.32 471.289 169.273C471.159 170.445 471.094 171.747 471.094 173.18C471.224 174.482 471.484 175.719 471.875 176.891C472.266 178.062 472.852 179.039 473.633 179.82C474.544 180.471 475.781 180.797 477.344 180.797C478.646 180.797 480.339 180.016 482.422 178.453C484.505 176.76 486.719 174.677 489.062 172.203C491.406 169.599 493.815 166.799 496.289 163.805C498.893 160.68 501.302 157.685 503.516 154.82C505.729 151.956 507.682 149.417 509.375 147.203C511.198 144.99 512.5 143.362 513.281 142.32C514.323 141.148 515.365 140.497 516.406 140.367C517.448 140.107 518.229 140.367 518.75 141.148C519.271 141.93 519.336 143.102 518.945 144.664C518.685 146.227 517.773 148.049 516.211 150.133ZM458.984 158.727C459.635 156.122 460.417 153.062 461.328 149.547C462.24 146.031 463.021 142.646 463.672 139.391C464.323 136.135 464.779 133.466 465.039 131.383C465.43 129.169 465.365 128.128 464.844 128.258C464.193 128.388 463.477 128.583 462.695 128.844C462.044 129.104 461.198 129.299 460.156 129.43C459.115 129.56 458.073 129.755 457.031 130.016C458.073 127.932 458.659 126.24 458.789 124.938C459.049 123.505 459.115 122.398 458.984 121.617C458.854 120.706 458.594 119.99 458.203 119.469C456.771 118.297 454.232 119.273 450.586 122.398C447.07 125.393 442.969 130.992 438.281 139.195C436.328 142.581 434.766 146.227 433.594 150.133C432.422 153.909 431.576 157.49 431.055 160.875C430.664 164.26 430.599 167.255 430.859 169.859C431.12 172.333 431.641 173.961 432.422 174.742C433.854 176.174 435.482 176.891 437.305 176.891C439.128 176.76 440.951 176.24 442.773 175.328C444.727 174.286 446.615 172.984 448.438 171.422C450.391 169.859 452.083 168.232 453.516 166.539C455.078 164.846 456.315 163.284 457.227 161.852C458.268 160.419 458.854 159.378 458.984 158.727ZM507.031 168.688C505.599 167.255 504.557 165.888 503.906 164.586C503.385 163.154 502.995 161.786 502.734 160.484C502.474 159.052 502.474 157.62 502.734 156.188C503.255 154.365 504.036 152.672 505.078 151.109C505.99 149.677 507.227 148.245 508.789 146.812C510.352 145.25 512.435 143.818 515.039 142.516C516.732 138.349 518.229 133.987 519.531 129.43C520.964 124.742 522.201 120.51 523.242 116.734C524.414 112.307 525.456 107.88 526.367 103.453C529.622 92.3854 531.315 83.401 531.445 76.5C531.576 69.4688 531.445 64.8464 531.055 62.6328C530.924 61.7214 530.794 60.8099 530.664 59.8984C530.404 59.1172 530.143 58.2708 529.883 57.3594C529.753 56.3177 529.557 55.3411 529.297 54.4297C530.729 53.6484 531.966 52.9974 533.008 52.4766C534.18 51.9557 535.156 51.5651 535.938 51.3047C536.849 50.9141 537.695 50.6536 538.477 50.5234C541.471 49.8724 544.271 49.5469 546.875 49.5469C549.609 49.4167 551.107 49.8724 551.367 50.9141C551.497 51.5651 551.628 52.737 551.758 54.4297C552.018 56.1224 552.148 58.2057 552.148 60.6797C552.148 63.1536 551.953 65.9531 551.562 69.0781C551.172 72.0729 550.456 75.263 549.414 78.6484C548.503 81.6432 547.266 85.8099 545.703 91.1484C544.271 95.7057 542.383 101.826 540.039 109.508C537.695 117.06 534.635 126.76 530.859 138.609C534.766 137.307 539.062 136.07 543.75 134.898C548.438 133.727 553.19 132.75 558.008 131.969C562.956 131.188 567.839 130.602 572.656 130.211C577.604 129.82 582.161 129.755 586.328 130.016C587.109 130.016 587.63 130.406 587.891 131.188C588.281 131.839 588.281 132.555 587.891 133.336C587.63 134.117 586.914 134.898 585.742 135.68C584.701 136.331 583.138 136.721 581.055 136.852C578.451 137.112 575.586 137.438 572.461 137.828C569.336 138.089 566.081 138.544 562.695 139.195C559.44 139.716 556.185 140.432 552.93 141.344C549.674 142.125 546.615 143.102 543.75 144.273C541.536 145.055 539.323 145.836 537.109 146.617C535.286 147.268 533.333 148.049 531.25 148.961C529.297 149.742 527.669 150.458 526.367 151.109L521.875 165.367C529.427 170.706 535.221 176.174 539.258 181.773C543.424 187.372 546.419 192.516 548.242 197.203C550.456 202.672 551.693 208.01 551.953 213.219C551.953 218.948 551.107 224.677 549.414 230.406C547.721 236.266 545.443 241.799 542.578 247.008C539.844 252.346 536.589 257.294 532.812 261.852C529.167 266.409 525.26 270.315 521.094 273.57C517.057 276.826 512.891 279.299 508.594 280.992C504.427 282.685 500.456 283.336 496.68 282.945C493.945 282.685 491.667 281.773 489.844 280.211C488.021 278.779 486.654 276.891 485.742 274.547C484.831 272.333 484.31 269.794 484.18 266.93C484.049 264.195 484.31 261.461 484.961 258.727C485.482 255.992 486.589 250.914 488.281 243.492C489.714 237.242 491.927 228.128 494.922 216.148C497.917 204.299 501.953 188.479 507.031 168.688ZM518.555 177.867C516.732 184.378 515.104 190.367 513.672 195.836C512.37 201.305 511.263 206.122 510.352 210.289C509.18 215.107 508.268 219.469 507.617 223.375C506.445 228.323 505.208 233.206 503.906 238.023C502.734 242.841 501.823 247.138 501.172 250.914C500.391 254.82 500.065 257.945 500.195 260.289C500.326 262.633 501.172 263.805 502.734 263.805C506.51 264.065 510.417 262.568 514.453 259.312C518.62 256.188 522.396 252.151 525.781 247.203C529.167 242.385 531.966 237.112 534.18 231.383C536.393 225.784 537.5 220.576 537.5 215.758C537.5 210.419 536.654 205.146 534.961 199.938C533.789 197.203 532.422 194.534 530.859 191.93C529.427 189.716 527.669 187.372 525.586 184.898C523.633 182.294 521.289 179.951 518.555 177.867ZM640.234 139.586C640.755 138.805 641.406 138.349 642.188 138.219C643.099 137.958 643.815 138.023 644.336 138.414C644.857 138.805 645.117 139.456 645.117 140.367C645.247 141.279 644.922 142.516 644.141 144.078C641.536 149.026 638.086 154.365 633.789 160.094C629.622 165.823 625.195 171.227 620.508 176.305C615.82 181.253 611.263 185.354 606.836 188.609C602.409 191.865 598.698 193.492 595.703 193.492C591.406 193.492 587.826 192.646 584.961 190.953C582.096 189.26 579.818 187.177 578.125 184.703C576.562 182.229 575.456 179.56 574.805 176.695C574.154 173.701 573.958 170.966 574.219 168.492C574.349 166.409 574.805 162.698 575.586 157.359C576.367 151.891 577.409 145.641 578.711 138.609C580.013 131.448 581.445 123.831 583.008 115.758C584.701 107.555 586.458 99.6771 588.281 92.125C586.068 92.3854 583.854 92.6458 581.641 92.9062C579.427 93.1667 577.409 93.2969 575.586 93.2969C571.419 93.2969 567.513 92.8411 563.867 91.9297C560.091 90.888 557.292 89.9115 555.469 89C554.427 88.4792 553.971 87.763 554.102 86.8516C554.232 85.8099 554.622 84.8333 555.273 83.9219C555.924 82.8802 556.771 82.0339 557.812 81.3828C558.724 80.6016 559.57 80.2109 560.352 80.2109C562.826 80.4714 565.495 80.7318 568.359 80.9922C571.224 81.1224 574.349 81.1224 577.734 80.9922C580.208 80.862 582.552 80.6667 584.766 80.4062C587.109 80.1458 589.388 79.8203 591.602 79.4297C593.294 73.1797 594.922 67.776 596.484 63.2188C598.177 58.5312 599.674 55.276 600.977 53.4531C601.367 52.8021 602.214 52.2812 603.516 51.8906C604.948 51.3698 606.445 51.0443 608.008 50.9141C609.57 50.6536 611.068 50.6536 612.5 50.9141C613.932 51.0443 614.974 51.5 615.625 52.2812C616.276 53.3229 616.536 55.9922 616.406 60.2891C616.276 64.5859 615.56 70.0547 614.258 76.6953C619.727 76.6953 624.544 77.0208 628.711 77.6719C633.008 78.1927 636.654 78.8438 639.648 79.625C642.643 80.276 645.052 80.9922 646.875 81.7734C648.698 82.4245 650.065 82.8802 650.977 83.1406C651.888 83.401 652.344 84.0521 652.344 85.0938C652.474 86.1354 652.279 87.2422 651.758 88.4141C651.367 89.4557 650.651 90.3672 649.609 91.1484C648.568 91.9297 647.396 92.1901 646.094 91.9297C644.792 91.7995 643.294 91.5391 641.602 91.1484C640.039 90.7578 638.086 90.4323 635.742 90.1719C633.529 89.9115 630.859 89.651 627.734 89.3906C624.609 89.1302 620.964 89 616.797 89C616.016 89 615.104 89.0651 614.062 89.1953C613.151 89.1953 612.174 89.1953 611.133 89.1953C610.612 91.2786 610.091 93.362 609.57 95.4453C609.18 97.3984 608.594 99.4818 607.812 101.695C606.12 106.904 604.167 112.568 601.953 118.688C600 124.026 597.656 130.146 594.922 137.047C592.188 143.948 589.128 151.305 585.742 159.117C584.961 164.716 585.026 169.013 585.938 172.008C586.979 174.872 588.216 176.956 589.648 178.258C591.341 179.69 593.424 180.471 595.898 180.602C597.852 180.862 600.195 180.211 602.93 178.648C605.794 176.956 608.724 174.742 611.719 172.008C614.714 169.273 617.708 166.279 620.703 163.023C623.828 159.768 626.693 156.578 629.297 153.453C631.901 150.328 634.18 147.529 636.133 145.055C638.086 142.451 639.453 140.628 640.234 139.586Z" fill="#122620"/>
</g>
<path d="M11.1 205V200.2H31.95V99.25H23.1C15.7 99.25 11.55 102.85 10.65 110.05L8.55 126.1H4.35V92.5H7.05L11.55 94H62.85L67.35 92.5H70.05V126.1H65.85L63.75 110.05C62.85 102.85 58.7 99.25 51.3 99.25H42.45V200.2H63.3V205H11.1ZM77.1 205V199.9H89.7V101.8H74.4V98.2L89.7 96.25L96.3 92.5H99.9V134.65H100.35C101.15 132.85 102.4 131.05 104.1 129.25C105.8 127.35 107.95 125.75 110.55 124.45C113.15 123.15 116.15 122.5 119.55 122.5C124.45 122.5 128.3 124.05 131.1 127.15C134 130.15 135.45 134.6 135.45 140.5V199.9H148.05V205H125.25V141.4C125.25 133.4 121.75 129.4 114.75 129.4C111.95 129.4 109.5 130.05 107.4 131.35C105.4 132.65 103.75 134.3 102.45 136.3C101.25 138.2 100.4 140.05 99.9 141.85V199.9H108.75V200.05H114.75V205H77.1ZM191.1 206.5C185 206.5 179.5 204.8 174.6 201.4C169.8 197.9 166 193.05 163.2 186.85C160.5 180.65 159.15 173.45 159.15 165.25C159.15 159.85 159.75 154.65 160.95 149.65C162.25 144.55 164.2 139.95 166.8 135.85C169.5 131.75 172.8 128.5 176.7 126.1C180.7 123.7 185.4 122.5 190.8 122.5C198.7 122.5 205.05 125.2 209.85 130.6C214.75 136 217.2 143.55 217.2 153.25C217.2 154.55 217.15 155.75 217.05 156.85C217.05 157.95 217 158.8 216.9 159.4H170.25V172C170.25 178.3 171.35 183.55 173.55 187.75C175.75 191.85 178.65 194.95 182.25 197.05C185.85 199.15 189.65 200.2 193.65 200.2C197.45 200.2 200.65 199.4 203.25 197.8C205.95 196.2 208.1 194.25 209.7 191.95C211.4 189.55 212.55 187.3 213.15 185.2L216.3 186.25C215.7 189.15 214.35 192.2 212.25 195.4C210.15 198.5 207.35 201.15 203.85 203.35C200.35 205.45 196.1 206.5 191.1 206.5ZM190.5 127.3C186.3 127.3 182.7 128.55 179.7 131.05C176.8 133.45 174.55 136.8 172.95 141.1C171.35 145.3 170.45 150.1 170.25 155.5H200.25C201.35 155.5 202.4 155.4 203.4 155.2C204.5 154.9 205.4 154.15 206.1 152.95C206.9 151.65 207.3 149.5 207.3 146.5C207.3 140.3 205.7 135.55 202.5 132.25C199.3 128.95 195.3 127.3 190.5 127.3Z" fill="#122620"/>
<defs>
<filter id="filter0_d_131_2" x="204.609" y="40.3438" width="467.93" height="282.188" filterUnits="userSpaceOnUse" color-interpolation-filters="sRGB">
<feFlood flood-opacity="0" result="BackgroundImageFix"/>
<feColorMatrix in="SourceAlpha" type="matrix" values="0 0 0 0 0 0 0 0 0 0 0 0 0 0 0 0 0 0 127 0" result="hardAlpha"/>
<feOffset dy="19"/>
<feGaussianBlur stdDeviation="10"/>
<feComposite in2="hardAlpha" operator="out"/>
<feColorMatrix type="matrix" values="0 0 0 0 0 0 0 0 0 0 0 0 0 0 0 0 0 0 0.25 0"/>
<feBlend mode="normal" in2="BackgroundImageFix" result="effect1_dropShadow_131_2"/>
<feBlend mode="normal" in="SourceGraphic" in2="effect1_dropShadow_131_2" result="shape"/>
</filter>
</defs>
</svg>
